# xmcd
#
# Track frame offsets:
#	150
#	19700
#	46075
#	63350
#	75112
#	89400
#	112075
#	134725
#	151525
#	170512
#	188630
#	211337
#
# Disc length: 3168 seconds
#
# Revision: 1
# Processed by: cddbd v1.5.1PL0 Copyright (c) Steve Scherf et al.
# Submitted via: CDex 1.50Beta5
#
DISCID=900c5e0c
DTITLE=宗次郎 - Japanese Spirit
DYEAR=1996
DGENRE=New Age
TTITLE0=夢
TTITLE1=Japanese Spirit(TAKIO VERSION)
TTITLE2=舟歌(TAKIO’S SONG)
TTITLE3=涙
TTITLE4=わらべ唄(月の兎)
TTITLE5=空
TTITLE6=手毬歌(TAKIO VERSION)
TTITLE7=夢みる少女
TTITLE8=あした
TTITLE9=天上大風
TTITLE10=手毬歌
TTITLE11=Japanese Spirit
EXTD=
EXTT0=
EXTT1=
EXTT2=
EXTT3=
EXTT4=
EXTT5=
EXTT6=
EXTT7=
EXTT8=
EXTT9=
EXTT10=
EXTT11=
PLAYORDER=
